<svg id="visual" viewBox="0 0 900 600" width="900" height="600" xmlns="http://www.w3.org/2000/svg" xmlns:xlink="http://www.w3.org/1999/xlink" version="1.1"><rect x="0" y="0" width="900" height="600" fill="#003366"></rect><defs><linearGradient id="grad1_0" x1="33.3%" y1="0%" x2="100%" y2="100%"><stop offset="20%" stop-color="#a3fcaf" stop-opacity="1"></stop><stop offset="80%" stop-color="#a3fcaf" stop-opacity="1"></stop></linearGradient></defs><defs><linearGradient id="grad1_1" x1="33.3%" y1="0%" x2="100%" y2="100%"><stop offset="20%" stop-color="#a3fcaf" stop-opacity="1"></stop><stop offset="80%" stop-color="#00bcb5" stop-opacity="1"></stop></linearGradient></defs><defs><linearGradient id="grad1_2" x1="33.3%" y1="0%" x2="100%" y2="100%"><stop offset="20%" stop-color="#0077a1" stop-opacity="1"></stop><stop offset="80%" stop-color="#00bcb5" stop-opacity="1"></stop></linearGradient></defs><defs><linearGradient id="grad1_3" x1="33.3%" y1="0%" x2="100%" y2="100%"><stop offset="20%" stop-color="#0077a1" stop-opacity="1"></stop><stop offset="80%" stop-color="#003366" stop-opacity="1"></stop></linearGradient></defs><defs><linearGradient id="grad2_0" x1="0%" y1="0%" x2="66.7%" y2="100%"><stop offset="20%" stop-color="#a3fcaf" stop-opacity="1"></stop><stop offset="80%" stop-color="#a3fcaf" stop-opacity="1"></stop></linearGradient></defs><defs><linearGradient id="grad2_1" x1="0%" y1="0%" x2="66.7%" y2="100%"><stop offset="20%" stop-color="#00bcb5" stop-opacity="1"></stop><stop offset="80%" stop-color="#a3fcaf" stop-opacity="1"></stop></linearGradient></defs><defs><linearGradient id="grad2_2" x1="0%" y1="0%" x2="66.7%" y2="100%"><stop offset="20%" stop-color="#00bcb5" stop-opacity="1"></stop><stop offset="80%" stop-color="#0077a1" stop-opacity="1"></stop></linearGradient></defs><defs><linearGradient id="grad2_3" x1="0%" y1="0%" x2="66.7%" y2="100%"><stop offset="20%" stop-color="#003366" stop-opacity="1"></stop><stop offset="80%" stop-color="#0077a1" stop-opacity="1"></stop></linearGradient></defs><g transform="translate(900, 0)"><path d="M0 243.4C-50.3 241.5 -100.7 239.6 -121.7 210.8C-142.7 181.9 -134.4 126.1 -149.8 86.5C-165.2 46.9 -204.3 23.4 -243.4 0L0 0Z" fill="#005488"></path><path d="M0 182.5C-37.7 181.1 -75.5 179.7 -91.3 158.1C-107 136.4 -100.8 94.6 -112.4 64.9C-123.9 35.2 -153.2 17.6 -182.5 0L0 0Z" fill="#009ab0"></path><path d="M0 121.7C-25.2 120.7 -50.3 119.8 -60.8 105.4C-71.4 91 -67.2 63.1 -74.9 43.3C-82.6 23.4 -102.1 11.7 -121.7 0L0 0Z" fill="#54ddb3"></path><path d="M0 60.8C-12.6 60.4 -25.2 59.9 -30.4 52.7C-35.7 45.5 -33.6 31.5 -37.5 21.6C-41.3 11.7 -51.1 5.9 -60.8 0L0 0Z" fill="#a3fcaf"></path></g><g transform="translate(0, 600)"><path d="M0 -243.4C48.1 -240.2 96.3 -237.1 121.7 -210.8C147.1 -184.5 149.8 -135 166.3 -96C182.8 -57 213.1 -28.5 243.4 0L0 0Z" fill="#005488"></path><path d="M0 -182.5C36.1 -180.2 72.2 -177.8 91.3 -158.1C110.3 -138.3 112.3 -101.2 124.7 -72C137.1 -42.8 159.8 -21.4 182.5 0L0 0Z" fill="#009ab0"></path><path d="M0 -121.7C24.1 -120.1 48.1 -118.5 60.8 -105.4C73.5 -92.2 74.9 -67.5 83.1 -48C91.4 -28.5 106.5 -14.3 121.7 0L0 0Z" fill="#54ddb3"></path><path d="M0 -60.8C12 -60.1 24.1 -59.3 30.4 -52.7C36.8 -46.1 37.4 -33.7 41.6 -24C45.7 -14.3 53.3 -7.1 60.8 0L0 0Z" fill="#a3fcaf"></path></g></svg>