<svg id="visual" viewBox="0 0 900 600" width="900" height="600" xmlns="http://www.w3.org/2000/svg" xmlns:xlink="http://www.w3.org/1999/xlink" version="1.1"><path d="M0 25L11.5 26C23 27 46 29 69 29C92 29 115 27 138.2 28C161.3 29 184.7 33 207.8 32C231 31 254 25 277 23C300 21 323 23 346 23C369 23 392 21 415.2 20C438.3 19 461.7 19 484.8 22C508 25 531 31 554 34C577 37 600 37 623 36C646 35 669 33 692.2 30C715.3 27 738.7 23 761.8 24C785 25 808 31 831 34C854 37 877 37 888.5 37L900 37L900 0L888.5 0C877 0 854 0 831 0C808 0 785 0 761.8 0C738.7 0 715.3 0 692.2 0C669 0 646 0 623 0C600 0 577 0 554 0C531 0 508 0 484.8 0C461.7 0 438.3 0 415.2 0C392 0 369 0 346 0C323 0 300 0 277 0C254 0 231 0 207.8 0C184.7 0 161.3 0 138.2 0C115 0 92 0 69 0C46 0 23 0 11.5 0L0 0Z" fill="#003366"></path><path d="M0 127L11.5 132C23 137 46 147 69 153C92 159 115 161 138.2 161C161.3 161 184.7 159 207.8 161C231 163 254 169 277 162C300 155 323 135 346 130C369 125 392 135 415.2 134C438.3 133 461.7 121 484.8 118C508 115 531 121 554 124C577 127 600 127 623 126C646 125 669 123 692.2 121C715.3 119 738.7 117 761.8 125C785 133 808 151 831 152C854 153 877 137 888.5 129L900 121L900 35L888.5 35C877 35 854 35 831 32C808 29 785 23 761.8 22C738.7 21 715.3 25 692.2 28C669 31 646 33 623 34C600 35 577 35 554 32C531 29 508 23 484.8 20C461.7 17 438.3 17 415.2 18C392 19 369 21 346 21C323 21 300 19 277 21C254 23 231 29 207.8 30C184.7 31 161.3 27 138.2 26C115 25 92 27 69 27C46 27 23 25 11.5 24L0 23Z" fill="#00497b"></path><path d="M0 163L11.5 166C23 169 46 175 69 179C92 183 115 185 138.2 187C161.3 189 184.7 191 207.8 195C231 199 254 205 277 196C300 187 323 163 346 156C369 149 392 159 415.2 159C438.3 159 461.7 149 484.8 148C508 147 531 155 554 159C577 163 600 163 623 161C646 159 669 155 692.2 152C715.3 149 738.7 147 761.8 155C785 163 808 181 831 182C854 183 877 167 888.5 159L900 151L900 119L888.5 127C877 135 854 151 831 150C808 149 785 131 761.8 123C738.7 115 715.3 117 692.2 119C669 121 646 123 623 124C600 125 577 125 554 122C531 119 508 113 484.8 116C461.7 119 438.3 131 415.2 132C392 133 369 123 346 128C323 133 300 153 277 160C254 167 231 161 207.8 159C184.7 157 161.3 159 138.2 159C115 159 92 157 69 151C46 145 23 135 11.5 130L0 125Z" fill="#00608d"></path><path d="M0 187L11.5 193C23 199 46 211 69 218C92 225 115 227 138.2 229C161.3 231 184.7 233 207.8 236C231 239 254 243 277 231C300 219 323 191 346 184C369 177 392 191 415.2 192C438.3 193 461.7 181 484.8 181C508 181 531 193 554 196C577 199 600 193 623 189C646 185 669 183 692.2 180C715.3 177 738.7 173 761.8 180C785 187 808 205 831 206C854 207 877 191 888.5 183L900 175L900 149L888.5 157C877 165 854 181 831 180C808 179 785 161 761.8 153C738.7 145 715.3 147 692.2 150C669 153 646 157 623 159C600 161 577 161 554 157C531 153 508 145 484.8 146C461.7 147 438.3 157 415.2 157C392 157 369 147 346 154C323 161 300 185 277 194C254 203 231 197 207.8 193C184.7 189 161.3 187 138.2 185C115 183 92 181 69 177C46 173 23 167 11.5 164L0 161Z" fill="#00779d"></path><path d="M0 253L11.5 256C23 259 46 265 69 268C92 271 115 271 138.2 274C161.3 277 184.7 283 207.8 286C231 289 254 289 277 276C300 263 323 237 346 230C369 223 392 235 415.2 236C438.3 237 461.7 227 484.8 229C508 231 531 245 554 247C577 249 600 239 623 237C646 235 669 241 692.2 237C715.3 233 738.7 219 761.8 225C785 231 808 257 831 258C854 259 877 235 888.5 223L900 211L900 173L888.5 181C877 189 854 205 831 204C808 203 785 185 761.8 178C738.7 171 715.3 175 692.2 178C669 181 646 183 623 187C600 191 577 197 554 194C531 191 508 179 484.8 179C461.7 179 438.3 191 415.2 190C392 189 369 175 346 182C323 189 300 217 277 229C254 241 231 237 207.8 234C184.7 231 161.3 229 138.2 227C115 225 92 223 69 216C46 209 23 197 11.5 191L0 185Z" fill="#008eaa"></path><path d="M0 397L11.5 395C23 393 46 389 69 386C92 383 115 381 138.2 381C161.3 381 184.7 383 207.8 387C231 391 254 397 277 397C300 397 323 391 346 383C369 375 392 365 415.2 366C438.3 367 461.7 379 484.8 390C508 401 531 411 554 412C577 413 600 405 623 398C646 391 669 385 692.2 385C715.3 385 738.7 391 761.8 394C785 397 808 397 831 394C854 391 877 385 888.5 382L900 379L900 209L888.5 221C877 233 854 257 831 256C808 255 785 229 761.8 223C738.7 217 715.3 231 692.2 235C669 239 646 233 623 235C600 237 577 247 554 245C531 243 508 229 484.8 227C461.7 225 438.3 235 415.2 234C392 233 369 221 346 228C323 235 300 261 277 274C254 287 231 287 207.8 284C184.7 281 161.3 275 138.2 272C115 269 92 269 69 266C46 263 23 257 11.5 254L0 251Z" fill="#00a6b5"></path><path d="M0 457L11.5 461C23 465 46 473 69 475C92 477 115 473 138.2 468C161.3 463 184.7 457 207.8 455C231 453 254 455 277 458C300 461 323 465 346 465C369 465 392 461 415.2 457C438.3 453 461.7 449 484.8 457C508 465 531 485 554 487C577 489 600 473 623 467C646 461 669 465 692.2 464C715.3 463 738.7 457 761.8 457C785 457 808 463 831 464C854 465 877 461 888.5 459L900 457L900 377L888.5 380C877 383 854 389 831 392C808 395 785 395 761.8 392C738.7 389 715.3 383 692.2 383C669 383 646 389 623 396C600 403 577 411 554 410C531 409 508 399 484.8 388C461.7 377 438.3 365 415.2 364C392 363 369 373 346 381C323 389 300 395 277 395C254 395 231 389 207.8 385C184.7 381 161.3 379 138.2 379C115 379 92 381 69 384C46 387 23 391 11.5 393L0 395Z" fill="#1cbdba"></path><path d="M0 487L11.5 490C23 493 46 499 69 503C92 507 115 509 138.2 507C161.3 505 184.7 499 207.8 498C231 497 254 501 277 502C300 503 323 501 346 500C369 499 392 499 415.2 496C438.3 493 461.7 487 484.8 492C508 497 531 513 554 516C577 519 600 509 623 503C646 497 669 495 692.2 493C715.3 491 738.7 489 761.8 492C785 495 808 503 831 504C854 505 877 499 888.5 496L900 493L900 455L888.5 457C877 459 854 463 831 462C808 461 785 455 761.8 455C738.7 455 715.3 461 692.2 462C669 463 646 459 623 465C600 471 577 487 554 485C531 483 508 463 484.8 455C461.7 447 438.3 451 415.2 455C392 459 369 463 346 463C323 463 300 459 277 456C254 453 231 451 207.8 453C184.7 455 161.3 461 138.2 466C115 471 92 475 69 473C46 471 23 463 11.5 459L0 455Z" fill="#48d3ba"></path><path d="M0 529L11.5 532C23 535 46 541 69 545C92 549 115 551 138.2 549C161.3 547 184.7 541 207.8 540C231 539 254 543 277 546C300 549 323 551 346 549C369 547 392 541 415.2 537C438.3 533 461.7 531 484.8 535C508 539 531 549 554 553C577 557 600 555 623 550C646 545 669 537 692.2 531C715.3 525 738.7 521 761.8 524C785 527 808 537 831 540C854 543 877 539 888.5 537L900 535L900 491L888.5 494C877 497 854 503 831 502C808 501 785 493 761.8 490C738.7 487 715.3 489 692.2 491C669 493 646 495 623 501C600 507 577 517 554 514C531 511 508 495 484.8 490C461.7 485 438.3 491 415.2 494C392 497 369 497 346 498C323 499 300 501 277 500C254 499 231 495 207.8 496C184.7 497 161.3 503 138.2 505C115 507 92 505 69 501C46 497 23 491 11.5 488L0 485Z" fill="#74e8b6"></path><path d="M0 601L11.5 601C23 601 46 601 69 601C92 601 115 601 138.2 601C161.3 601 184.7 601 207.8 601C231 601 254 601 277 601C300 601 323 601 346 601C369 601 392 601 415.2 601C438.3 601 461.7 601 484.8 601C508 601 531 601 554 601C577 601 600 601 623 601C646 601 669 601 692.2 601C715.3 601 738.7 601 761.8 601C785 601 808 601 831 601C854 601 877 601 888.5 601L900 601L900 533L888.5 535C877 537 854 541 831 538C808 535 785 525 761.8 522C738.7 519 715.3 523 692.2 529C669 535 646 543 623 548C600 553 577 555 554 551C531 547 508 537 484.8 533C461.7 529 438.3 531 415.2 535C392 539 369 545 346 547C323 549 300 547 277 544C254 541 231 537 207.8 538C184.7 539 161.3 545 138.2 547C115 549 92 547 69 543C46 539 23 533 11.5 530L0 527Z" fill="#a3fcaf"></path></svg>