<svg id="visual" viewBox="0 0 900 600" width="900" height="600" xmlns="http://www.w3.org/2000/svg" xmlns:xlink="http://www.w3.org/1999/xlink" version="1.1"><path d="M0 91L10 95C20 99 40 107 60 114C80 121 100 127 120 128C140 129 160 125 180 116C200 107 220 93 240 92C260 91 280 103 300 114C320 125 340 135 360 139C380 143 400 141 420 138C440 135 460 131 480 123C500 115 520 103 540 104C560 105 580 119 600 118C620 117 640 101 660 93C680 85 700 85 720 84C740 83 760 81 780 84C800 87 820 95 840 98C860 101 880 99 890 98L900 97L900 0L890 0C880 0 860 0 840 0C820 0 800 0 780 0C760 0 740 0 720 0C700 0 680 0 660 0C640 0 620 0 600 0C580 0 560 0 540 0C520 0 500 0 480 0C460 0 440 0 420 0C400 0 380 0 360 0C340 0 320 0 300 0C280 0 260 0 240 0C220 0 200 0 180 0C160 0 140 0 120 0C100 0 80 0 60 0C40 0 20 0 10 0L0 0Z" fill="#002866"></path><path d="M0 271L10 274C20 277 40 283 60 285C80 287 100 285 120 292C140 299 160 315 180 322C200 329 220 327 240 327C260 327 280 329 300 319C320 309 340 287 360 291C380 295 400 325 420 329C440 333 460 311 480 307C500 303 520 317 540 318C560 319 580 307 600 304C620 301 640 307 660 319C680 331 700 349 720 341C740 333 760 299 780 287C800 275 820 285 840 292C860 299 880 303 890 305L900 307L900 95L890 96C880 97 860 99 840 96C820 93 800 85 780 82C760 79 740 81 720 82C700 83 680 83 660 91C640 99 620 115 600 116C580 117 560 103 540 102C520 101 500 113 480 121C460 129 440 133 420 136C400 139 380 141 360 137C340 133 320 123 300 112C280 101 260 89 240 90C220 91 200 105 180 114C160 123 140 127 120 126C100 125 80 119 60 112C40 105 20 97 10 93L0 89Z" fill="#4e3fbe"></path><path d="M0 481L10 479C20 477 40 473 60 462C80 451 100 433 120 424C140 415 160 415 180 419C200 423 220 431 240 435C260 439 280 439 300 441C320 443 340 447 360 456C380 465 400 479 420 485C440 491 460 489 480 489C500 489 520 491 540 478C560 465 580 437 600 433C620 429 640 449 660 464C680 479 700 489 720 483C740 477 760 455 780 442C800 429 820 425 840 425C860 425 880 429 890 431L900 433L900 305L890 303C880 301 860 297 840 290C820 283 800 273 780 285C760 297 740 331 720 339C700 347 680 329 660 317C640 305 620 299 600 302C580 305 560 317 540 316C520 315 500 301 480 305C460 309 440 331 420 327C400 323 380 293 360 289C340 285 320 307 300 317C280 327 260 325 240 325C220 325 200 327 180 320C160 313 140 297 120 290C100 283 80 285 60 283C40 281 20 275 10 272L0 269Z" fill="#8c43ee"></path><path d="M0 535L10 533C20 531 40 527 60 522C80 517 100 511 120 506C140 501 160 497 180 500C200 503 220 513 240 520C260 527 280 531 300 535C320 539 340 543 360 545C380 547 400 547 420 547C440 547 460 547 480 547C500 547 520 547 540 537C560 527 580 507 600 505C620 503 640 519 660 528C680 537 700 539 720 536C740 533 760 525 780 516C800 507 820 497 840 498C860 499 880 511 890 517L900 523L900 431L890 429C880 427 860 423 840 423C820 423 800 427 780 440C760 453 740 475 720 481C700 487 680 477 660 462C640 447 620 427 600 431C580 435 560 463 540 476C520 489 500 487 480 487C460 487 440 489 420 483C400 477 380 463 360 454C340 445 320 441 300 439C280 437 260 437 240 433C220 429 200 421 180 417C160 413 140 413 120 422C100 431 80 449 60 460C40 471 20 475 10 477L0 479Z" fill="#4e3fbe"></path><path d="M0 601L10 601C20 601 40 601 60 601C80 601 100 601 120 601C140 601 160 601 180 601C200 601 220 601 240 601C260 601 280 601 300 601C320 601 340 601 360 601C380 601 400 601 420 601C440 601 460 601 480 601C500 601 520 601 540 601C560 601 580 601 600 601C620 601 640 601 660 601C680 601 700 601 720 601C740 601 760 601 780 601C800 601 820 601 840 601C860 601 880 601 890 601L900 601L900 521L890 515C880 509 860 497 840 496C820 495 800 505 780 514C760 523 740 531 720 534C700 537 680 535 660 526C640 517 620 501 600 503C580 505 560 525 540 535C520 545 500 545 480 545C460 545 440 545 420 545C400 545 380 545 360 543C340 541 320 537 300 533C280 529 260 525 240 518C220 511 200 501 180 498C160 495 140 499 120 504C100 509 80 515 60 520C40 525 20 529 10 531L0 533Z" fill="#002866"></path></svg>