<svg id="visual" viewBox="0 0 900 600" width="900" height="600" xmlns="http://www.w3.org/2000/svg" xmlns:xlink="http://www.w3.org/1999/xlink" version="1.1"><rect x="0" y="0" width="900" height="600" fill="#5d00ff"></rect><defs><linearGradient id="grad1_0" x1="33.3%" y1="0%" x2="100%" y2="100%"><stop offset="20%" stop-color="#00ff4d" stop-opacity="1"></stop><stop offset="80%" stop-color="#00ff4d" stop-opacity="1"></stop></linearGradient></defs><defs><linearGradient id="grad1_1" x1="33.3%" y1="0%" x2="100%" y2="100%"><stop offset="20%" stop-color="#00ff4d" stop-opacity="1"></stop><stop offset="80%" stop-color="#00e4c1" stop-opacity="1"></stop></linearGradient></defs><defs><linearGradient id="grad1_2" x1="33.3%" y1="0%" x2="100%" y2="100%"><stop offset="20%" stop-color="#00bfff" stop-opacity="1"></stop><stop offset="80%" stop-color="#00e4c1" stop-opacity="1"></stop></linearGradient></defs><defs><linearGradient id="grad1_3" x1="33.3%" y1="0%" x2="100%" y2="100%"><stop offset="20%" stop-color="#00bfff" stop-opacity="1"></stop><stop offset="80%" stop-color="#008bff" stop-opacity="1"></stop></linearGradient></defs><defs><linearGradient id="grad1_4" x1="33.3%" y1="0%" x2="100%" y2="100%"><stop offset="20%" stop-color="#5d00ff" stop-opacity="1"></stop><stop offset="80%" stop-color="#008bff" stop-opacity="1"></stop></linearGradient></defs><defs><linearGradient id="grad2_0" x1="0%" y1="0%" x2="66.7%" y2="100%"><stop offset="20%" stop-color="#00ff4d" stop-opacity="1"></stop><stop offset="80%" stop-color="#00ff4d" stop-opacity="1"></stop></linearGradient></defs><defs><linearGradient id="grad2_1" x1="0%" y1="0%" x2="66.7%" y2="100%"><stop offset="20%" stop-color="#00e4c1" stop-opacity="1"></stop><stop offset="80%" stop-color="#00ff4d" stop-opacity="1"></stop></linearGradient></defs><defs><linearGradient id="grad2_2" x1="0%" y1="0%" x2="66.7%" y2="100%"><stop offset="20%" stop-color="#00e4c1" stop-opacity="1"></stop><stop offset="80%" stop-color="#00bfff" stop-opacity="1"></stop></linearGradient></defs><defs><linearGradient id="grad2_3" x1="0%" y1="0%" x2="66.7%" y2="100%"><stop offset="20%" stop-color="#008bff" stop-opacity="1"></stop><stop offset="80%" stop-color="#00bfff" stop-opacity="1"></stop></linearGradient></defs><defs><linearGradient id="grad2_4" x1="0%" y1="0%" x2="66.7%" y2="100%"><stop offset="20%" stop-color="#008bff" stop-opacity="1"></stop><stop offset="80%" stop-color="#5d00ff" stop-opacity="1"></stop></linearGradient></defs><g transform="translate(900, 0)"><path d="M0 297.5C-24.5 290.4 -49 283.4 -74.5 278.2C-100.1 273 -126.8 269.6 -148.7 257.6C-170.7 245.6 -187.8 225.1 -205.1 205.1C-222.3 185.1 -239.5 165.6 -247.7 143C-255.9 120.4 -255 94.5 -261.8 70.1C-268.6 45.8 -283 22.9 -297.5 0L0 0Z" fill="#0063ff"></path><path d="M0 238C-19.6 232.3 -39.2 226.7 -59.6 222.5C-80.1 218.4 -101.4 215.7 -119 206.1C-136.5 196.5 -150.3 180 -164 164C-177.8 148.1 -191.6 132.5 -198.1 114.4C-204.7 96.3 -204 75.6 -209.4 56.1C-214.8 36.6 -226.4 18.3 -238 0L0 0Z" fill="#00a8ff"></path><path d="M0 178.5C-14.7 174.3 -29.4 170 -44.7 166.9C-60.1 163.8 -76.1 161.8 -89.2 154.6C-102.4 147.4 -112.7 135 -123 123C-133.4 111 -143.7 99.4 -148.6 85.8C-153.5 72.2 -153 56.7 -157.1 42.1C-161.1 27.5 -169.8 13.7 -178.5 0L0 0Z" fill="#00d2fb"></path><path d="M0 119C-9.8 116.2 -19.6 113.4 -29.8 111.3C-40 109.2 -50.7 107.8 -59.5 103C-68.3 98.3 -75.1 90 -82 82C-88.9 74 -95.8 66.3 -99.1 57.2C-102.3 48.1 -102 37.8 -104.7 28.1C-107.4 18.3 -113.2 9.2 -119 0L0 0Z" fill="#00f386"></path><path d="M0 59.5C-4.9 58.1 -9.8 56.7 -14.9 55.6C-20 54.6 -25.4 53.9 -29.7 51.5C-34.1 49.1 -37.6 45 -41 41C-44.5 37 -47.9 33.1 -49.5 28.6C-51.2 24.1 -51 18.9 -52.4 14C-53.7 9.2 -56.6 4.6 -59.5 0L0 0Z" fill="#00ff4d"></path></g><g transform="translate(0, 600)"><path d="M0 -297.5C24.5 -290.8 49 -284.1 74.8 -279.2C100.6 -274.2 127.6 -271 148.7 -257.6C169.9 -244.2 185.2 -220.6 198.7 -198.7C212.2 -176.8 224.1 -156.5 235.6 -136C247.1 -115.5 258.3 -94.7 268.5 -72C278.8 -49.2 288.1 -24.6 297.5 0L0 0Z" fill="#0063ff"></path><path d="M0 -238C19.6 -232.6 39.2 -227.3 59.8 -223.3C80.5 -219.4 102.1 -216.8 119 -206.1C135.9 -195.4 148.1 -176.5 159 -159C169.8 -141.4 179.2 -125.2 188.4 -108.8C197.7 -92.4 206.6 -75.7 214.8 -57.6C223 -39.4 230.5 -19.7 238 0L0 0Z" fill="#00a8ff"></path><path d="M0 -178.5C14.7 -174.5 29.4 -170.5 44.9 -167.5C60.3 -164.5 76.5 -162.6 89.2 -154.6C101.9 -146.5 111.1 -132.4 119.2 -119.2C127.3 -106.1 134.4 -93.9 141.3 -81.6C148.2 -69.3 155 -56.8 161.1 -43.2C167.3 -29.5 172.9 -14.8 178.5 0L0 0Z" fill="#00d2fb"></path><path d="M0 -119C9.8 -116.3 19.6 -113.6 29.9 -111.7C40.2 -109.7 51 -108.4 59.5 -103C68 -97.7 74.1 -88.2 79.5 -79.5C84.9 -70.7 89.6 -62.6 94.2 -54.4C98.8 -46.2 103.3 -37.9 107.4 -28.8C111.5 -19.7 115.3 -9.8 119 0L0 0Z" fill="#00f386"></path><path d="M0 -59.5C4.9 -58.2 9.8 -56.8 15 -55.8C20.1 -54.8 25.5 -54.2 29.7 -51.5C34 -48.8 37 -44.1 39.7 -39.7C42.4 -35.4 44.8 -31.3 47.1 -27.2C49.4 -23.1 51.7 -18.9 53.7 -14.4C55.8 -9.8 57.6 -4.9 59.5 0L0 0Z" fill="#00ff4d"></path></g></svg>