<svg id="visual" viewBox="0 0 900 600" width="900" height="600" xmlns="http://www.w3.org/2000/svg" xmlns:xlink="http://www.w3.org/1999/xlink" version="1.1"><rect x="0" y="0" width="900" height="600" fill="#a8b9c5"></rect><defs><linearGradient id="grad1_0" x1="33.3%" y1="0%" x2="100%" y2="100%"><stop offset="20%" stop-color="#105597" stop-opacity="1"></stop><stop offset="80%" stop-color="#105597" stop-opacity="1"></stop></linearGradient></defs><defs><linearGradient id="grad1_1" x1="33.3%" y1="0%" x2="100%" y2="100%"><stop offset="20%" stop-color="#105597" stop-opacity="1"></stop><stop offset="80%" stop-color="#5e87af" stop-opacity="1"></stop></linearGradient></defs><defs><linearGradient id="grad1_2" x1="33.3%" y1="0%" x2="100%" y2="100%"><stop offset="20%" stop-color="#a8b9c5" stop-opacity="1"></stop><stop offset="80%" stop-color="#5e87af" stop-opacity="1"></stop></linearGradient></defs><defs><linearGradient id="grad2_0" x1="0%" y1="0%" x2="66.7%" y2="100%"><stop offset="20%" stop-color="#105597" stop-opacity="1"></stop><stop offset="80%" stop-color="#105597" stop-opacity="1"></stop></linearGradient></defs><defs><linearGradient id="grad2_1" x1="0%" y1="0%" x2="66.7%" y2="100%"><stop offset="20%" stop-color="#5e87af" stop-opacity="1"></stop><stop offset="80%" stop-color="#105597" stop-opacity="1"></stop></linearGradient></defs><defs><linearGradient id="grad2_2" x1="0%" y1="0%" x2="66.7%" y2="100%"><stop offset="20%" stop-color="#5e87af" stop-opacity="1"></stop><stop offset="80%" stop-color="#a8b9c5" stop-opacity="1"></stop></linearGradient></defs><g transform="translate(900, 0)"><path d="M0 270.4C-27.4 243.1 -54.7 215.7 -83.4 201.4C-112.1 187.1 -142.2 185.7 -172.5 172.5C-202.9 159.3 -233.5 134.2 -249.8 103.5C-266.2 72.7 -268.3 36.4 -270.4 0L0 0Z" fill="#82a0ba"></path><path d="M0 180.3C-18.2 162.1 -36.5 143.8 -55.6 134.3C-74.8 124.7 -94.8 123.8 -115 115C-135.2 106.2 -155.6 89.5 -166.6 69C-177.5 48.5 -178.9 24.2 -180.3 0L0 0Z" fill="#3b6ea3"></path><path d="M0 90.1C-9.1 81 -18.2 71.9 -27.8 67.1C-37.4 62.4 -47.4 61.9 -57.5 57.5C-67.6 53.1 -77.8 44.7 -83.3 34.5C-88.7 24.2 -89.4 12.1 -90.1 0L0 0Z" fill="#105597"></path></g><g transform="translate(0, 600)"><path d="M0 -270.4C36.6 -267.8 73.3 -265.1 103.5 -249.8C133.7 -234.5 157.4 -206.6 180.3 -180.3C203.2 -154 225.3 -129.3 240.2 -99.5C255.1 -69.7 262.8 -34.9 270.4 0L0 0Z" fill="#82a0ba"></path><path d="M0 -180.3C24.4 -178.5 48.9 -176.7 69 -166.6C89.1 -156.4 104.9 -137.8 120.2 -120.2C135.5 -102.7 150.2 -86.2 160.1 -66.3C170.1 -46.5 175.2 -23.2 180.3 0L0 0Z" fill="#3b6ea3"></path><path d="M0 -90.1C12.2 -89.3 24.4 -88.4 34.5 -83.3C44.6 -78.2 52.5 -68.9 60.1 -60.1C67.7 -51.3 75.1 -43.1 80.1 -33.2C85 -23.2 87.6 -11.6 90.1 0L0 0Z" fill="#105597"></path></g></svg>