<svg id="visual" viewBox="0 0 900 675" width="900" height="675" xmlns="http://www.w3.org/2000/svg" xmlns:xlink="http://www.w3.org/1999/xlink" version="1.1"><rect x="0" y="0" width="900" height="675" fill="#003366"></rect><path d="M0 461L30 463.5C60 466 120 471 180 468C240 465 300 454 360 457.8C420 461.7 480 480.3 540 483.5C600 486.7 660 474.3 720 470.7C780 467 840 472 870 474.5L900 477L900 676L870 676C840 676 780 676 720 676C660 676 600 676 540 676C480 676 420 676 360 676C300 676 240 676 180 676C120 676 60 676 30 676L0 676Z" fill="#A3FCAF" stroke-linecap="round" stroke-linejoin="miter"></path></svg>