<svg id="visual" viewBox="0 0 900 600" width="900" height="600" xmlns="http://www.w3.org/2000/svg" xmlns:xlink="http://www.w3.org/1999/xlink" version="1.1"><path d="M0 187L16.7 197C33.3 207 66.7 227 100 226C133.3 225 166.7 203 200 204C233.3 205 266.7 229 300 234C333.3 239 366.7 225 400 221C433.3 217 466.7 223 500 219C533.3 215 566.7 201 600 198C633.3 195 666.7 203 700 219C733.3 235 766.7 259 800 264C833.3 269 866.7 255 883.3 248L900 241L900 0L883.3 0C866.7 0 833.3 0 800 0C766.7 0 733.3 0 700 0C666.7 0 633.3 0 600 0C566.7 0 533.3 0 500 0C466.7 0 433.3 0 400 0C366.7 0 333.3 0 300 0C266.7 0 233.3 0 200 0C166.7 0 133.3 0 100 0C66.7 0 33.3 0 16.7 0L0 0Z" fill="#003366"></path><path d="M0 349L16.7 352C33.3 355 66.7 361 100 361C133.3 361 166.7 355 200 361C233.3 367 266.7 385 300 390C333.3 395 366.7 387 400 382C433.3 377 466.7 375 500 372C533.3 369 566.7 365 600 359C633.3 353 666.7 345 700 355C733.3 365 766.7 393 800 401C833.3 409 866.7 397 883.3 391L900 385L900 239L883.3 246C866.7 253 833.3 267 800 262C766.7 257 733.3 233 700 217C666.7 201 633.3 193 600 196C566.7 199 533.3 213 500 217C466.7 221 433.3 215 400 219C366.7 223 333.3 237 300 232C266.7 227 233.3 203 200 202C166.7 201 133.3 223 100 224C66.7 225 33.3 205 16.7 195L0 185Z" fill="#009bb0"></path><path d="M0 601L16.7 601C33.3 601 66.7 601 100 601C133.3 601 166.7 601 200 601C233.3 601 266.7 601 300 601C333.3 601 366.7 601 400 601C433.3 601 466.7 601 500 601C533.3 601 566.7 601 600 601C633.3 601 666.7 601 700 601C733.3 601 766.7 601 800 601C833.3 601 866.7 601 883.3 601L900 601L900 383L883.3 389C866.7 395 833.3 407 800 399C766.7 391 733.3 363 700 353C666.7 343 633.3 351 600 357C566.7 363 533.3 367 500 370C466.7 373 433.3 375 400 380C366.7 385 333.3 393 300 388C266.7 383 233.3 365 200 359C166.7 353 133.3 359 100 359C66.7 359 33.3 353 16.7 350L0 347Z" fill="#afffb5"></path></svg>