<svg id="visual" viewBox="0 0 900 600" width="900" height="600" xmlns="http://www.w3.org/2000/svg" xmlns:xlink="http://www.w3.org/1999/xlink" version="1.1"><rect x="0" y="0" width="900" height="600" fill="#003366"></rect><path d="M0 418L21.5 426.3C43 434.7 86 451.3 128.8 460.2C171.7 469 214.3 470 257.2 461.7C300 453.3 343 435.7 385.8 427.8C428.7 420 471.3 422 514.2 419.3C557 416.7 600 409.3 642.8 417.3C685.7 425.3 728.3 448.7 771.2 460.3C814 472 857 472 878.5 472L900 472L900 601L878.5 601C857 601 814 601 771.2 601C728.3 601 685.7 601 642.8 601C600 601 557 601 514.2 601C471.3 601 428.7 601 385.8 601C343 601 300 601 257.2 601C214.3 601 171.7 601 128.8 601C86 601 43 601 21.5 601L0 601Z" fill="#54ddb3"></path><path d="M0 485L21.5 481.7C43 478.3 86 471.7 128.8 473.5C171.7 475.3 214.3 485.7 257.2 492.8C300 500 343 504 385.8 496.3C428.7 488.7 471.3 469.3 514.2 467.7C557 466 600 482 642.8 487.7C685.7 493.3 728.3 488.7 771.2 485.7C814 482.7 857 481.3 878.5 480.7L900 480L900 601L878.5 601C857 601 814 601 771.2 601C728.3 601 685.7 601 642.8 601C600 601 557 601 514.2 601C471.3 601 428.7 601 385.8 601C343 601 300 601 257.2 601C214.3 601 171.7 601 128.8 601C86 601 43 601 21.5 601L0 601Z" fill="#00b1bc"></path><path d="M0 505L21.5 506.3C43 507.7 86 510.3 128.8 510.8C171.7 511.3 214.3 509.7 257.2 512.3C300 515 343 522 385.8 526.7C428.7 531.3 471.3 533.7 514.2 536C557 538.3 600 540.7 642.8 536.7C685.7 532.7 728.3 522.3 771.2 519.2C814 516 857 520 878.5 522L900 524L900 601L878.5 601C857 601 814 601 771.2 601C728.3 601 685.7 601 642.8 601C600 601 557 601 514.2 601C471.3 601 428.7 601 385.8 601C343 601 300 601 257.2 601C214.3 601 171.7 601 128.8 601C86 601 43 601 21.5 601L0 601Z" fill="#0083a9"></path><path d="M0 566L21.5 561.5C43 557 86 548 128.8 542.3C171.7 536.7 214.3 534.3 257.2 535.8C300 537.3 343 542.7 385.8 547.8C428.7 553 471.3 558 514.2 559.3C557 560.7 600 558.3 642.8 558.7C685.7 559 728.3 562 771.2 558C814 554 857 543 878.5 537.5L900 532L900 601L878.5 601C857 601 814 601 771.2 601C728.3 601 685.7 601 642.8 601C600 601 557 601 514.2 601C471.3 601 428.7 601 385.8 601C343 601 300 601 257.2 601C214.3 601 171.7 601 128.8 601C86 601 43 601 21.5 601L0 601Z" fill="#005488"></path></svg>