<svg id="visual" viewBox="0 0 900 600" width="900" height="600" xmlns="http://www.w3.org/2000/svg" xmlns:xlink="http://www.w3.org/1999/xlink" version="1.1"><rect x="0" y="0" width="900" height="600" fill="#003366"></rect><path d="M0 282L21.5 296.5C43 311 86 340 128.8 355.5C171.7 371 214.3 373 257.2 358.5C300 344 343 313 385.8 299.3C428.7 285.7 471.3 289.3 514.2 284.5C557 279.7 600 266.3 642.8 280.3C685.7 294.3 728.3 335.7 771.2 356.2C814 376.7 857 376.3 878.5 376.2L900 376L900 601L878.5 601C857 601 814 601 771.2 601C728.3 601 685.7 601 642.8 601C600 601 557 601 514.2 601C471.3 601 428.7 601 385.8 601C343 601 300 601 257.2 601C214.3 601 171.7 601 128.8 601C86 601 43 601 21.5 601L0 601Z" fill="#54ddb3"></path><path d="M0 399L21.5 393.2C43 387.3 86 375.7 128.8 378.8C171.7 382 214.3 400 257.2 412.7C300 425.3 343 432.7 385.8 419.3C428.7 406 471.3 372 514.2 369.2C557 366.3 600 394.7 642.8 404.5C685.7 414.3 728.3 405.7 771.2 400.5C814 395.3 857 393.7 878.5 392.8L900 392L900 601L878.5 601C857 601 814 601 771.2 601C728.3 601 685.7 601 642.8 601C600 601 557 601 514.2 601C471.3 601 428.7 601 385.8 601C343 601 300 601 257.2 601C214.3 601 171.7 601 128.8 601C86 601 43 601 21.5 601L0 601Z" fill="#00b1bc"></path><path d="M0 434L21.5 436.5C43 439 86 444 128.8 444.8C171.7 445.7 214.3 442.3 257.2 446.8C300 451.3 343 463.7 385.8 471.8C428.7 480 471.3 484 514.2 488.3C557 492.7 600 497.3 642.8 490.5C685.7 483.7 728.3 465.3 771.2 459.8C814 454.3 857 461.7 878.5 465.3L900 469L900 601L878.5 601C857 601 814 601 771.2 601C728.3 601 685.7 601 642.8 601C600 601 557 601 514.2 601C471.3 601 428.7 601 385.8 601C343 601 300 601 257.2 601C214.3 601 171.7 601 128.8 601C86 601 43 601 21.5 601L0 601Z" fill="#0083a9"></path><path d="M0 541L21.5 533.2C43 525.3 86 509.7 128.8 499.8C171.7 490 214.3 486 257.2 488.7C300 491.3 343 500.7 385.8 509.7C428.7 518.7 471.3 527.3 514.2 529.7C557 532 600 528 642.8 528.7C685.7 529.3 728.3 534.7 771.2 527.7C814 520.7 857 501.3 878.5 491.7L900 482L900 601L878.5 601C857 601 814 601 771.2 601C728.3 601 685.7 601 642.8 601C600 601 557 601 514.2 601C471.3 601 428.7 601 385.8 601C343 601 300 601 257.2 601C214.3 601 171.7 601 128.8 601C86 601 43 601 21.5 601L0 601Z" fill="#005488"></path></svg>