<svg id="visual" viewBox="0 0 900 600" width="900" height="600" xmlns="http://www.w3.org/2000/svg" xmlns:xlink="http://www.w3.org/1999/xlink" version="1.1"><rect x="0" y="0" width="900" height="600" fill="#fdfdfd"></rect><defs><linearGradient id="grad1_0" x1="33.3%" y1="0%" x2="100%" y2="100%"><stop offset="20%" stop-color="#00ff0d" stop-opacity="1"></stop><stop offset="80%" stop-color="#00ff0d" stop-opacity="1"></stop></linearGradient></defs><defs><linearGradient id="grad1_1" x1="33.3%" y1="0%" x2="100%" y2="100%"><stop offset="20%" stop-color="#00ff0d" stop-opacity="1"></stop><stop offset="80%" stop-color="#6fff59" stop-opacity="1"></stop></linearGradient></defs><defs><linearGradient id="grad1_2" x1="33.3%" y1="0%" x2="100%" y2="100%"><stop offset="20%" stop-color="#9dff86" stop-opacity="1"></stop><stop offset="80%" stop-color="#6fff59" stop-opacity="1"></stop></linearGradient></defs><defs><linearGradient id="grad1_3" x1="33.3%" y1="0%" x2="100%" y2="100%"><stop offset="20%" stop-color="#9dff86" stop-opacity="1"></stop><stop offset="80%" stop-color="#c1ffaf" stop-opacity="1"></stop></linearGradient></defs><defs><linearGradient id="grad1_4" x1="33.3%" y1="0%" x2="100%" y2="100%"><stop offset="20%" stop-color="#e1ffd6" stop-opacity="1"></stop><stop offset="80%" stop-color="#c1ffaf" stop-opacity="1"></stop></linearGradient></defs><defs><linearGradient id="grad1_5" x1="33.3%" y1="0%" x2="100%" y2="100%"><stop offset="20%" stop-color="#e1ffd6" stop-opacity="1"></stop><stop offset="80%" stop-color="#fdfdfd" stop-opacity="1"></stop></linearGradient></defs><defs><linearGradient id="grad2_0" x1="0%" y1="0%" x2="66.7%" y2="100%"><stop offset="20%" stop-color="#00ff0d" stop-opacity="1"></stop><stop offset="80%" stop-color="#00ff0d" stop-opacity="1"></stop></linearGradient></defs><defs><linearGradient id="grad2_1" x1="0%" y1="0%" x2="66.7%" y2="100%"><stop offset="20%" stop-color="#6fff59" stop-opacity="1"></stop><stop offset="80%" stop-color="#00ff0d" stop-opacity="1"></stop></linearGradient></defs><defs><linearGradient id="grad2_2" x1="0%" y1="0%" x2="66.7%" y2="100%"><stop offset="20%" stop-color="#6fff59" stop-opacity="1"></stop><stop offset="80%" stop-color="#9dff86" stop-opacity="1"></stop></linearGradient></defs><defs><linearGradient id="grad2_3" x1="0%" y1="0%" x2="66.7%" y2="100%"><stop offset="20%" stop-color="#c1ffaf" stop-opacity="1"></stop><stop offset="80%" stop-color="#9dff86" stop-opacity="1"></stop></linearGradient></defs><defs><linearGradient id="grad2_4" x1="0%" y1="0%" x2="66.7%" y2="100%"><stop offset="20%" stop-color="#c1ffaf" stop-opacity="1"></stop><stop offset="80%" stop-color="#e1ffd6" stop-opacity="1"></stop></linearGradient></defs><defs><linearGradient id="grad2_5" x1="0%" y1="0%" x2="66.7%" y2="100%"><stop offset="20%" stop-color="#fdfdfd" stop-opacity="1"></stop><stop offset="80%" stop-color="#e1ffd6" stop-opacity="1"></stop></linearGradient></defs><g transform="translate(900, 0)"><path d="M0 297.5C-27.3 283.5 -54.7 269.5 -85.3 262.5C-115.9 255.5 -149.7 255.5 -174.8 240.6C-199.9 225.8 -216.3 196.2 -233 169.3C-249.7 142.3 -266.9 118 -277.7 90.2C-288.5 62.5 -293 31.2 -297.5 0L0 0Z" fill="#effee9"></path><path d="M0 247.9C-22.8 236.2 -45.6 224.6 -71.1 218.7C-96.6 212.9 -124.8 212.9 -145.7 200.5C-166.6 188.2 -180.2 163.5 -194.2 141.1C-208.1 118.6 -222.4 98.3 -231.4 75.2C-240.4 52 -244.2 26 -247.9 0L0 0Z" fill="#d1ffc2"></path><path d="M0 198.3C-18.2 189 -36.5 179.7 -56.9 175C-77.3 170.3 -99.8 170.3 -116.6 160.4C-133.3 150.6 -144.2 130.8 -155.3 112.9C-166.5 94.9 -177.9 78.7 -185.1 60.2C-192.3 41.6 -195.3 20.8 -198.3 0L0 0Z" fill="#b0ff9b"></path><path d="M0 148.7C-13.7 141.7 -27.3 134.7 -42.6 131.2C-57.9 127.7 -74.9 127.7 -87.4 120.3C-100 112.9 -108.1 98.1 -116.5 84.6C-124.9 71.2 -133.4 59 -138.9 45.1C-144.3 31.2 -146.5 15.6 -148.7 0L0 0Z" fill="#88ff70"></path><path d="M0 99.2C-9.1 94.5 -18.2 89.8 -28.4 87.5C-38.6 85.2 -49.9 85.2 -58.3 80.2C-66.6 75.3 -72.1 65.4 -77.7 56.4C-83.2 47.4 -89 39.3 -92.6 30.1C-96.2 20.8 -97.7 10.4 -99.2 0L0 0Z" fill="#4fff3d"></path><path d="M0 49.6C-4.6 47.2 -9.1 44.9 -14.2 43.7C-19.3 42.6 -25 42.6 -29.1 40.1C-33.3 37.6 -36 32.7 -38.8 28.2C-41.6 23.7 -44.5 19.7 -46.3 15C-48.1 10.4 -48.8 5.2 -49.6 0L0 0Z" fill="#00ff0d"></path></g><g transform="translate(0, 600)"><path d="M0 -297.5C25.3 -276.5 50.7 -255.6 81 -249.2C111.2 -242.8 146.4 -250.9 174.8 -240.6C203.3 -230.4 224.9 -201.8 237.9 -172.8C250.8 -143.8 255 -114.5 263.4 -85.6C271.9 -56.7 284.7 -28.4 297.5 0L0 0Z" fill="#effee9"></path><path d="M0 -247.9C21.1 -230.4 42.2 -213 67.5 -207.6C92.7 -202.3 122 -209.1 145.7 -200.5C169.4 -192 187.4 -168.2 198.2 -144C209 -119.9 212.5 -95.4 219.5 -71.3C226.6 -47.3 237.2 -23.6 247.9 0L0 0Z" fill="#d1ffc2"></path><path d="M0 -198.3C16.9 -184.3 33.8 -170.4 54 -166.1C74.2 -161.8 97.6 -167.3 116.6 -160.4C135.5 -153.6 150 -134.5 158.6 -115.2C167.2 -95.9 170 -76.3 175.6 -57.1C181.3 -37.8 189.8 -18.9 198.3 0L0 0Z" fill="#b0ff9b"></path><path d="M0 -148.7C12.7 -138.3 25.3 -127.8 40.5 -124.6C55.6 -121.4 73.2 -125.4 87.4 -120.3C101.6 -115.2 112.5 -100.9 118.9 -86.4C125.4 -71.9 127.5 -57.2 131.7 -42.8C136 -28.4 142.3 -14.2 148.7 0L0 0Z" fill="#88ff70"></path><path d="M0 -99.2C8.4 -92.2 16.9 -85.2 27 -83.1C37.1 -80.9 48.8 -83.6 58.3 -80.2C67.8 -76.8 75 -67.3 79.3 -57.6C83.6 -47.9 85 -38.2 87.8 -28.5C90.6 -18.9 94.9 -9.5 99.2 0L0 0Z" fill="#4fff3d"></path><path d="M0 -49.6C4.2 -46.1 8.4 -42.6 13.5 -41.5C18.5 -40.5 24.4 -41.8 29.1 -40.1C33.9 -38.4 37.5 -33.6 39.6 -28.8C41.8 -24 42.5 -19.1 43.9 -14.3C45.3 -9.5 47.4 -4.7 49.6 0L0 0Z" fill="#00ff0d"></path></g></svg>